<svg width="48" height="48" viewBox="0 0 48 48" fill="none" xmlns="http://www.w3.org/2000/svg">
<path d="M27.8639 24.5826C27.8494 25.3428 27.6095 26.0817 27.1747 26.7055C26.7398 27.3293 26.1295 27.8099 25.4211 28.0864C24.7128 28.3629 23.9383 28.423 23.1958 28.2588C22.4533 28.0947 21.7763 27.7138 21.2505 27.1644C20.7247 26.6151 20.3739 25.922 20.2425 25.173C20.1111 24.424 20.205 23.6529 20.5123 22.9574C20.8197 22.2618 21.3266 21.6732 21.9689 21.2661C22.6111 20.859 23.3598 20.6517 24.12 20.6706C25.1301 20.708 26.086 21.1374 26.7849 21.8677C27.4838 22.598 27.8709 23.5717 27.8639 24.5826Z" fill="#EFEFF0"/>
<path d="M30.6311 12.5586H17.6113C16.323 12.5586 15.0875 13.0704 14.1765 13.9813C13.2655 14.8923 12.7538 16.1278 12.7538 17.4161V30.7288C12.7538 31.3667 12.8794 31.9983 13.1235 32.5877C13.3676 33.177 13.7254 33.7125 14.1765 34.1636C14.6276 34.6146 15.163 34.9724 15.7524 35.2166C16.3417 35.4607 16.9734 35.5863 17.6113 35.5863H30.6311C31.269 35.5863 31.9007 35.4607 32.49 35.2166C33.0794 34.9724 33.6149 34.6146 34.0659 34.1636C34.517 33.7125 34.8748 33.177 35.1189 32.5877C35.363 31.9983 35.4887 31.3667 35.4887 30.7288V17.4401C35.4912 16.8004 35.3675 16.1664 35.1245 15.5746C34.8816 14.9828 34.5243 14.4447 34.073 13.9912C33.6218 13.5377 33.0855 13.1778 32.4948 12.9319C31.9042 12.6861 31.2709 12.5592 30.6311 12.5586ZM24.12 31.0936C22.8311 31.1227 21.5628 30.7671 20.477 30.0722C19.3911 29.3773 18.5369 28.3746 18.0233 27.1921C17.5098 26.0096 17.3603 24.7009 17.5938 23.433C17.8273 22.1651 18.4333 20.9956 19.3345 20.0737C20.2356 19.1517 21.391 18.5192 22.6532 18.2568C23.9154 17.9944 25.2272 18.114 26.4211 18.6004C27.615 19.0868 28.637 19.9179 29.3565 20.9876C30.076 22.0574 30.4604 23.3172 30.4607 24.6064C30.4706 25.4488 30.3143 26.2848 30.0009 27.0668C29.6876 27.8487 29.2232 28.5613 28.6344 29.1637C28.0455 29.7661 27.3438 30.2466 26.5692 30.5778C25.7946 30.9089 24.9624 31.0842 24.12 31.0936ZM31.1663 18.1217C31.008 18.1218 30.8512 18.0902 30.7052 18.0289C30.5592 17.9676 30.4268 17.8777 30.316 17.7646C30.2051 17.6515 30.118 17.5175 30.0596 17.3703C30.0012 17.223 29.9727 17.0657 29.9759 16.9073C29.9759 16.5853 30.1039 16.2764 30.3316 16.0486C30.5594 15.8209 30.8682 15.693 31.1903 15.693C31.5124 15.693 31.8213 15.8209 32.049 16.0486C32.2768 16.2764 32.4047 16.5853 32.4047 16.9073C32.4095 17.0788 32.3771 17.2492 32.3099 17.407C32.2427 17.5648 32.1422 17.7062 32.0152 17.8215C31.8883 17.9369 31.7379 18.0234 31.5744 18.0752C31.4109 18.127 31.2381 18.1429 31.0679 18.1217H31.1663Z" fill="#EFEFF0"/>
<path d="M24.12 0.000300414C17.7549 -0.0315252 11.6378 2.46648 7.1145 6.9448C2.59118 11.4231 0.032126 17.5149 0.000300414 23.88C-0.0315252 30.2451 2.46648 36.3622 6.9448 40.8855C11.4231 45.4088 17.5149 47.9679 23.88 47.9997C27.0317 48.0155 30.1556 47.4103 33.0734 46.2188C35.9912 45.0272 38.6458 43.2726 40.8855 41.0552C43.1252 38.8378 44.9063 36.2009 46.1269 33.2952C47.3476 30.3894 47.9839 27.2717 47.9997 24.12C48.0155 20.9683 47.4103 17.8444 46.2188 14.9266C45.0272 12.0088 43.2726 9.35422 41.0552 7.1145C38.8378 4.87478 36.2009 3.09375 33.2952 1.87309C30.3894 0.652433 27.2717 0.0160588 24.12 0.000300414ZM38.695 30.4847C38.7017 31.5614 38.4946 32.6287 38.0857 33.6248C37.6768 34.6209 37.0743 35.5259 36.3131 36.2874C35.5518 37.0488 34.647 37.6516 33.651 38.0608C32.6551 38.47 31.5878 38.6774 30.5111 38.671H17.7337C16.6572 38.6771 15.5901 38.4695 14.5943 38.0604C13.5986 37.6513 12.6938 37.0488 11.9325 36.2876C11.1711 35.5265 10.5683 34.6219 10.1589 33.6263C9.7495 32.6306 9.54165 31.5636 9.54738 30.4871V17.7073C9.54069 16.6306 9.74779 15.5632 10.1567 14.5672C10.5656 13.5711 11.1681 12.6661 11.9293 11.9046C12.6906 11.1432 13.5954 10.5404 14.5914 10.1312C15.5873 9.72202 16.6546 9.51461 17.7313 9.52098H30.5111C31.5876 9.51461 32.6547 9.72195 33.6505 10.131C34.6463 10.54 35.551 11.1426 36.3122 11.9038C37.0734 12.665 37.676 13.5697 38.085 14.5655C38.4941 15.5613 38.7014 16.6284 38.695 17.7049V30.4847Z" fill="#EFEFF0"/>
</svg>
