<svg width="94" height="95" viewBox="0 0 94 95" fill="none" xmlns="http://www.w3.org/2000/svg">
<path d="M94 47.5C94 59.9652 89.0482 71.9198 80.234 80.734C71.4198 89.5482 59.4652 94.5 47 94.5C34.5348 94.5 22.5802 89.5482 13.766 80.734C4.95177 71.9198 0 59.9652 0 47.5C0 35.0348 4.95177 23.0802 13.766 14.266C22.5802 5.45177 34.5348 0.5 47 0.5C59.4652 0.5 71.4198 5.45177 80.234 14.266C89.0482 23.0802 94 35.0348 94 47.5ZM48.6861 35.1978C44.1115 37.1012 34.9739 41.0375 21.2734 47.0065C19.0526 47.8877 17.8874 48.7533 17.7778 49.6032C17.6015 51.0309 19.3934 51.5949 21.8315 52.3645L22.8596 52.6876C25.2566 53.469 28.4879 54.3796 30.1622 54.4149C31.6897 54.454 33.3896 53.8274 35.2617 52.5349C48.0653 43.8947 54.6728 39.5276 55.084 39.4336C55.3778 39.3631 55.789 39.2809 56.0592 39.5276C56.3295 39.7744 56.306 40.2326 56.2766 40.356C56.1004 41.1139 49.068 47.6469 45.4314 51.0309C44.2975 52.0884 43.4926 52.8345 43.3281 53.0049C42.966 53.3752 42.5978 53.7395 42.2236 54.0976C39.9911 56.2479 38.3226 57.8576 42.3118 60.4896C44.2329 61.7586 45.7721 62.7985 47.3055 63.8442C48.974 64.984 50.6425 66.1179 52.8045 67.5396C53.3528 67.9 53.8816 68.2662 54.3908 68.6382C56.3354 70.0247 58.092 71.2702 60.2481 71.0705C61.5054 70.953 62.8037 69.778 63.4618 66.253C65.0186 57.9281 68.0795 39.8978 68.7845 32.4659C68.8288 31.8481 68.8032 31.2273 68.7081 30.6152C68.6512 30.1218 68.4124 29.6673 68.0384 29.3404C67.5031 28.9728 66.8663 28.7818 66.2171 28.794C64.4546 28.8234 61.7345 29.7693 48.6861 35.1978Z" fill="#EFEFF0"/>
</svg>
