<svg width="48" height="48" viewBox="0 0 48 48" fill="none" xmlns="http://www.w3.org/2000/svg">
<path d="M24 0C19.2533 0 14.6131 1.40758 10.6663 4.04473C6.71954 6.68188 3.6434 10.4302 1.8269 14.8156C0.0103989 19.201 -0.464881 24.0266 0.461164 28.6822C1.38721 33.3377 3.67299 37.6141 7.02945 40.9706C10.3859 44.327 14.6623 46.6128 19.3178 47.5388C23.9734 48.4649 28.799 47.9896 33.1844 46.1731C37.5698 44.3566 41.3181 41.2805 43.9553 37.3337C46.5924 33.3869 48 28.7467 48 24C47.9936 17.6367 45.463 11.5359 40.9635 7.03645C36.4641 2.53696 30.3633 0.00635372 24 0ZM38.2536 18.5112V20.0616C38.2536 20.1803 38.2299 20.2977 38.1838 20.4071C38.1377 20.5164 38.0701 20.6154 37.9851 20.6981C37.9001 20.7809 37.7993 20.8458 37.6888 20.889C37.5783 20.9322 37.4602 20.9528 37.3416 20.9496C34.8077 20.77 32.3836 19.8448 30.3744 18.2904V29.6376C30.3741 30.8935 30.1235 32.1367 29.6373 33.2947C29.151 34.4526 28.4389 35.502 27.5424 36.3816C26.6379 37.2831 25.5631 37.9957 24.3806 38.4778C23.198 38.9598 21.9314 39.2018 20.6544 39.1896C18.0862 39.1851 15.6214 38.1775 13.7856 36.3816C12.6177 35.2042 11.7766 33.743 11.3448 32.1418C10.913 30.5406 10.9056 28.8545 11.3232 27.2496C11.7048 25.7088 12.4752 24.2928 13.5624 23.1384C14.3732 22.1474 15.3952 21.3501 16.5538 20.8049C17.7123 20.2597 18.978 19.9803 20.2584 19.9872H22.2264V24.0744C22.2273 24.1931 22.2028 24.3106 22.1547 24.4191C22.1066 24.5276 22.0359 24.6246 21.9473 24.7037C21.8587 24.7827 21.7543 24.842 21.6411 24.8775C21.5278 24.913 21.4082 24.9239 21.2904 24.9096C20.1477 24.5664 18.9165 24.6802 17.8561 25.2271C16.7957 25.774 15.9891 26.7113 15.6063 27.8413C15.2236 28.9713 15.2945 30.2058 15.8041 31.2846C16.3138 32.3634 17.2224 33.2021 18.3384 33.624C18.9864 33.996 19.7112 34.2144 20.4552 34.2648C21.0312 34.2888 21.6072 34.2168 22.1544 34.044C23.0683 33.7364 23.8633 33.151 24.4282 32.3696C24.9932 31.5882 25.3 30.6498 25.3056 29.6856V9.0096C25.3053 8.89625 25.3273 8.78395 25.3705 8.67914C25.4137 8.57433 25.4771 8.47906 25.5571 8.3988C25.6372 8.31854 25.7322 8.25486 25.8369 8.21141C25.9416 8.16796 26.0539 8.1456 26.1672 8.1456H29.5632C29.784 8.14529 29.9965 8.22978 30.1569 8.38162C30.3172 8.53347 30.4131 8.74108 30.4248 8.9616C30.549 10.0204 30.8855 11.0433 31.4142 11.9691C31.9428 12.8949 32.6528 13.7045 33.5016 14.3496C34.649 15.2109 36.0118 15.7391 37.44 15.876C37.6539 15.8943 37.854 15.9895 38.0031 16.1439C38.1522 16.2983 38.2404 16.5016 38.2512 16.716L38.2536 18.5112Z" fill="#EFEFF0"/>
</svg>
