<svg width="178" height="74" viewBox="0 0 178 74" fill="none" xmlns="http://www.w3.org/2000/svg">
<path d="M1.14426 67.9929C1.18136 67.7638 1.40998 67.6049 1.64468 67.6382C3.17403 67.7248 4.67938 67.712 6.2076 67.7982C19.6399 68.6505 33.2128 68.7676 46.7996 67.0234C61.575 65.1217 76.2898 61.5454 90.5199 56.5269C110.479 49.5022 129.193 39.282 146.263 27.6907C153.866 22.5299 161.292 17.4125 168.083 11.6023C168.309 11.3785 168.67 11.3828 168.897 11.6012C169.123 11.8196 169.116 12.1714 168.89 12.3951C162.854 19.1144 156.407 25.6726 149.096 31.4264C132.515 44.4842 112.791 54.4408 92.3039 61.4892C77.678 66.5258 62.4816 69.8799 47.2795 71.2348C33.3789 72.4575 19.3734 72.4837 5.96132 69.6895C4.44391 69.3804 2.99936 68.9229 1.50893 68.5027C1.25832 68.4603 1.1067 68.2231 1.14426 67.9929ZM164.409 12.2422C157 15.4594 149.512 18.3573 141.774 20.4968C136.624 21.9217 131.406 22.907 126.112 23.9122C125.438 24.1012 124.742 23.7098 124.54 23.0442C124.362 22.3715 124.754 21.6802 125.429 21.4912C132.922 18.8904 140.131 15.8908 147.36 12.7563C152.115 10.6991 156.888 8.65137 161.546 6.30515C162.398 5.90493 168.683 2.12724 171.414 1.45507C173.683 0.907847 175.174 1.76979 175.864 2.57745C176.146 2.91297 176.941 5.18987 175.828 8.39604C173.682 14.5401 167.302 29.035 166.05 31.9497L162.14 40.872C161.508 41.9462 160.374 46.8199 157.99 45.7447C155.756 45.5567 156.307 42.5644 157.447 39.0804L160.926 29.9238C161.905 27.3738 165.709 18.4523 168.095 11.5476C166.585 11.8077 164.785 12.0863 164.409 12.2422Z" fill="#E5EA6F" stroke="#E5EA6F" stroke-width="2"/>
</svg>
