<svg width="182" height="63" viewBox="0 0 182 63" fill="none" xmlns="http://www.w3.org/2000/svg">
<path d="M1.16695 7.80315C1.22076 8.02894 1.46043 8.17062 1.69205 8.12022C3.21092 7.92161 4.71315 7.82391 6.23093 7.62583C19.5645 5.79021 33.0922 4.67751 46.7704 5.42006C61.6454 6.23245 76.583 8.71946 91.143 12.6803C111.564 18.2215 130.977 27.041 148.852 37.3485C156.813 41.9375 164.595 46.4963 171.793 51.7925C172.035 51.9991 172.395 51.9683 172.605 51.7339C172.815 51.4995 172.782 51.1491 172.54 50.9425C166.028 44.6843 159.117 38.6168 151.402 33.4151C133.909 21.609 113.507 13.1266 92.558 7.60038C77.602 3.65063 62.2005 1.4206 46.9399 1.18481C32.9872 0.985362 19.0175 1.98687 5.84654 5.75767C4.3559 6.17731 2.94881 6.7395 1.49323 7.26798C1.24641 7.32862 1.11259 7.57628 1.16695 7.80315ZM168.082 51.4239C160.457 48.759 152.777 46.4183 144.902 44.8524C139.662 43.8093 134.385 43.2095 129.032 42.5955C128.346 42.4563 127.681 42.8978 127.528 43.5764C127.4 44.2603 127.842 44.921 128.528 45.0601C136.192 47.1041 143.602 49.5666 151.042 52.1621C155.935 53.8649 160.845 55.5569 165.663 57.555C166.541 57.8917 173.087 61.198 175.86 61.668C178.163 62.0472 179.586 61.0782 180.216 60.2221C180.472 59.8668 181.098 57.5377 179.753 54.4218C177.162 48.4518 169.735 34.4641 168.273 31.6491L163.718 23.0378C163.009 22.0128 161.521 17.2355 159.223 18.4827C157.008 18.8341 157.777 21.7779 159.169 25.1689L163.311 34.0455C164.475 36.5168 168.923 45.1352 171.81 51.8462C170.284 51.6976 168.469 51.5518 168.082 51.4239Z" fill="#E5EA6F" stroke="#E5EA6F" stroke-width="2"/>
</svg>
