<svg width="190" height="37" viewBox="0 0 190 37" fill="none" xmlns="http://www.w3.org/2000/svg">
<g clip-path="url(#clip0_292_145)">
<path d="M58.6747 20.508C57.4611 20.523 56.2535 20.3342 55.1023 19.9494C54.0854 19.6157 53.1893 18.9899 52.5258 18.1502C51.8806 17.3231 51.558 16.2276 51.558 14.8635V14.5778C51.5577 14.4812 51.5664 14.3848 51.584 14.2898H54.7126C54.6937 14.3802 54.6842 14.4724 54.6844 14.5648V14.8354C54.6632 15.4371 54.8354 16.0298 55.1759 16.5264C55.53 17.0019 56.0199 17.3589 56.5811 17.5505C57.2688 17.7906 57.994 17.9057 58.7224 17.8904C59.4729 17.9065 60.2217 17.8102 60.9438 17.6046C61.4918 17.454 61.9783 17.1343 62.3338 16.6909C62.6679 16.2229 62.8363 15.6568 62.8123 15.0822C62.8241 14.807 62.778 14.5324 62.677 14.2762C62.5759 14.0199 62.4221 13.7878 62.2255 13.5948C61.7765 13.189 61.2467 12.8827 60.671 12.6963C59.9737 12.4537 59.264 12.2484 58.5448 12.0814C57.7697 11.8995 57.0033 11.6916 56.239 11.4556C55.4993 11.2295 54.7903 10.9132 54.128 10.5138C53.4904 10.1306 52.9566 9.59682 52.5734 8.95927C52.1837 8.31406 51.9888 7.49132 51.9888 6.49103C51.9888 5.31032 52.3107 4.33313 52.9545 3.55946C53.6339 2.76379 54.5149 2.16553 55.505 1.82737C56.6172 1.43471 57.7898 1.24051 58.9692 1.25361C60.133 1.23902 61.2907 1.42355 62.3922 1.79922C63.3595 2.12137 64.2149 2.71243 64.8583 3.50317C65.4775 4.27684 65.7871 5.28145 65.7871 6.51701V6.87209H62.7019V6.49536C62.7175 5.9791 62.5537 5.47338 62.2385 5.06422C61.9025 4.65502 61.4584 4.34823 60.9568 4.17869C60.334 3.96632 59.679 3.86447 59.0212 3.87773C58.3812 3.87082 57.7432 3.9502 57.1245 4.11373C56.6311 4.23266 56.181 4.48772 55.8254 4.84987C55.504 5.22446 55.3382 5.7079 55.3621 6.20091C55.3497 6.46779 55.3959 6.73416 55.4972 6.98137C55.5986 7.22857 55.7527 7.45064 55.9488 7.63205C56.4009 8.02118 56.9309 8.30909 57.5034 8.47645C58.1486 8.68574 58.8624 8.88132 59.6447 9.06319C60.427 9.24506 61.2036 9.45003 61.9744 9.67809C62.7211 9.8931 63.4366 10.2046 64.1027 10.6048C64.7398 10.9885 65.2735 11.5222 65.6572 12.1593C66.0763 12.9095 66.2822 13.7601 66.2526 14.6189C66.2526 16.0378 65.9156 17.1781 65.2415 18.0398C64.5392 18.9244 63.5884 19.5789 62.5113 19.9191C61.2736 20.3253 59.9773 20.5243 58.6747 20.508Z" fill="#003F23"/>
<path d="M68.4719 20.2352V17.6176H70.6543V4.14622H68.4719V1.52859H76.2122V4.14622H74.0341V17.6176H76.2122V20.2352H68.4719Z" fill="#003F23"/>
<path d="M86.2562 20.2352L93.347 1.52859H97.2745L104.337 20.2352H100.793L99.2382 16.1735H91.1104L89.5558 20.2352H86.2562ZM91.9829 13.6901H98.3376L95.2284 5.2093H95.1202L91.9829 13.6901Z" fill="#003F23"/>
<path d="M111.896 20.508C110.896 20.5171 109.903 20.3462 108.964 20.0035C108.07 19.6722 107.267 19.1352 106.619 18.436C105.912 17.6514 105.385 16.7208 105.078 15.7101C104.688 14.4197 104.504 13.0761 104.532 11.7284V10.0375C104.504 8.68994 104.698 7.34697 105.106 6.06233C105.434 5.04245 105.988 4.10988 106.727 3.33428C107.42 2.63097 108.264 2.09487 109.196 1.76674C110.186 1.42094 111.228 1.2481 112.277 1.25577H112.686C113.615 1.25064 114.54 1.38866 115.427 1.66498C116.264 1.92395 117.043 2.34553 117.718 2.90559C118.398 3.48334 118.934 4.21118 119.285 5.03174C119.688 6.00312 119.884 7.04821 119.859 8.09971H116.7C116.7 7.0287 116.504 6.18791 116.113 5.57735C115.744 4.99222 115.2 4.53783 114.559 4.27827C113.87 4.00616 113.134 3.87156 112.393 3.88206C111.809 3.87655 111.228 3.96875 110.674 4.15486C110.148 4.33658 109.675 4.64605 109.297 5.05555C108.871 5.53632 108.563 6.11025 108.399 6.73135C108.171 7.57805 108.065 8.45292 108.085 9.3295V12.4364C108.065 13.313 108.171 14.1879 108.399 15.0346C108.564 15.656 108.872 16.2305 109.297 16.7126C109.675 17.1214 110.148 17.4301 110.674 17.6111C111.228 17.7972 111.809 17.8894 112.393 17.8839C112.963 17.8878 113.532 17.8194 114.084 17.6804C114.593 17.5529 115.068 17.3149 115.474 16.9832C115.894 16.6294 116.218 16.1751 116.414 15.6625C116.661 14.9951 116.777 14.2865 116.756 13.5753V12.627H111.82V10.2821H119.865V16.6909C119.865 17.6002 119.888 18.3407 119.932 18.9123C119.977 19.4839 120.009 19.9249 120.028 20.2352H118.12L117.546 17.9445C116.967 18.7952 116.152 19.4587 115.202 19.8541C114.222 20.284 113.163 20.5052 112.093 20.5037L111.896 20.508Z" fill="#003F23"/>
<path d="M124.003 20.2352V1.52859H136.656L136.275 4.14622H127.385V9.38148H135.51V12.0013H127.385V17.6176H136.402L136.812 20.2352H124.003Z" fill="#003F23"/>
<path d="M140.256 20.2352V1.52859H143.093L150.372 12.4646L151.409 14.2097L151.517 14.1816V1.52859H154.572V20.2352H151.654L144.156 8.94629L143.42 7.64722L143.309 7.67537V20.2352H140.256Z" fill="#003F23"/>
<path d="M165.333 20.508C164.31 20.5159 163.292 20.3595 162.319 20.0447C161.395 19.7426 160.555 19.2287 159.866 18.5442C159.118 17.7766 158.553 16.849 158.216 15.8314C157.815 14.7142 157.615 13.3429 157.616 11.7176V10.0375C157.584 8.66288 157.787 7.29285 158.216 5.98656C158.556 4.96633 159.12 4.03498 159.866 3.26068C160.548 2.57669 161.379 2.05823 162.293 1.74509C163.244 1.41716 164.244 1.25175 165.251 1.25578H165.66C166.604 1.25142 167.543 1.38937 168.446 1.66498C169.307 1.9281 170.101 2.37088 170.778 2.96405C171.483 3.60212 172.03 4.39618 172.374 5.2829C172.793 6.393 172.992 7.57395 172.961 8.76008H169.778C169.778 7.46967 169.592 6.47443 169.219 5.77438C168.894 5.11796 168.348 4.59681 167.678 4.3021C166.971 4.00535 166.21 3.85793 165.443 3.86907C164.859 3.8634 164.278 3.95561 163.724 4.14188C163.201 4.32177 162.731 4.63169 162.36 5.04257C161.942 5.52722 161.64 6.10012 161.475 6.71837C161.247 7.56507 161.141 8.43994 161.161 9.31651V12.4364C161.161 13.8178 161.342 14.9004 161.706 15.6841C162.005 16.4033 162.539 16.9996 163.222 17.3751C163.911 17.7223 164.674 17.8956 165.445 17.8796C166.242 17.8969 167.035 17.7533 167.775 17.4574C168.451 17.1652 169.001 16.6437 169.33 15.9851C169.702 15.2865 169.889 14.2999 169.89 13.0254H172.971C172.999 14.179 172.804 15.3273 172.398 16.4073C172.059 17.2937 171.522 18.0906 170.828 18.7369C170.162 19.338 169.377 19.793 168.524 20.0728C167.626 20.3661 166.687 20.5124 165.742 20.5058L165.333 20.508Z" fill="#003F23"/>
<path d="M180.155 20.2352V13.0362L173.694 1.52859H177.512L181.957 9.79069H182.039L186.564 1.52859H190L183.537 13.0362V20.2352H180.155Z" fill="#003F23"/>
<path d="M55.1369 31.2946C55.428 31.3004 55.7188 31.2714 56.003 31.208C56.2396 31.1456 56.4695 31.0601 56.6893 30.9525L56.9058 31.7709C56.6491 31.8999 56.3759 31.9932 56.0939 32.0481C55.7368 32.1125 55.3742 32.1422 55.0114 32.1368C54.5862 32.1391 54.1644 32.0605 53.7686 31.9052C53.3845 31.7525 53.038 31.5183 52.7531 31.2188C52.4597 30.8925 52.2351 30.5103 52.0928 30.0951C51.7622 29.0999 51.7622 28.0245 52.0928 27.0293C52.2399 26.6118 52.4697 26.2282 52.7683 25.9013C53.0549 25.5962 53.4053 25.3581 53.7946 25.2041C54.2083 25.0422 54.6493 24.9613 55.0936 24.966C55.4577 24.9581 55.8213 24.9952 56.1762 25.0764C56.4487 25.1458 56.7124 25.246 56.9621 25.3752L56.7261 26.1719L56.3494 26.0117C56.1219 25.9172 55.882 25.8559 55.6371 25.8299C55.4977 25.8135 55.3574 25.8055 55.217 25.806C54.9147 25.8044 54.6144 25.8549 54.3293 25.9554C54.0492 26.0545 53.7973 26.2202 53.5954 26.4383C53.3703 26.6891 53.2 26.984 53.0952 27.3043C52.9625 27.7131 52.8996 28.1412 52.909 28.5709C52.8984 29.0024 52.9599 29.4327 53.0909 29.844C53.1903 30.1551 53.3549 30.4415 53.5737 30.6841C53.7688 30.8949 54.0116 31.056 54.2817 31.1539C54.5562 31.2511 54.8458 31.2987 55.1369 31.2946Z" fill="#003F23"/>
<path d="M60.0279 25.0656H60.894L63.5679 32.0438H62.5459L61.812 30.0952H59.0601L58.3369 32.0438H57.328L60.0279 25.0656ZM59.3242 29.2919H61.5262L61.0802 28.0859C60.9589 27.7698 60.8485 27.4624 60.7489 27.1679C60.6493 26.8735 60.5519 26.5703 60.4523 26.2607H60.4306C60.331 26.5703 60.2293 26.8691 60.1232 27.1571C60.0171 27.445 59.9067 27.7547 59.7832 28.0859L59.3242 29.2919Z" fill="#003F23"/>
<path d="M64.4275 25.0656H66.6056C66.9194 25.0594 67.2315 25.1123 67.5258 25.2215C67.7767 25.3147 68.0038 25.4626 68.1905 25.6545C68.3695 25.8402 68.5074 26.0615 68.5953 26.304C68.6887 26.5726 68.7349 26.8554 68.7317 27.1398C68.7363 27.3844 68.6967 27.6279 68.6148 27.8586C68.5441 28.0606 68.4402 28.2493 68.3074 28.4172C68.1834 28.5736 68.0375 28.7114 67.8744 28.8264C67.7156 28.9368 67.5467 29.0318 67.3699 29.11L69.1258 32.0438H68.0302L66.4475 29.3092H65.352V32.0438H64.4275V25.0656ZM65.352 28.4735H66.1596C66.366 28.4751 66.5718 28.4511 66.7723 28.402C66.9475 28.3609 67.1134 28.2875 67.2616 28.1855C67.4011 28.0828 67.5133 27.9475 67.5886 27.7915C67.7011 27.5321 67.7388 27.2464 67.6975 26.9667C67.6562 26.6871 67.5374 26.4245 67.3547 26.2088C67.0616 25.977 66.6926 25.8627 66.3198 25.8883H65.352V28.4735Z" fill="#003F23"/>
<path d="M70.1368 25.0656H74.1748V25.9056H71.1133V27.9972H73.8977V28.8286H71.1133V31.1972H74.2073V32.0438H70.1368V25.0656Z" fill="#003F23"/>
<path d="M75.4609 25.0656H79.501V25.9056H76.4395V27.9972H79.2239V28.8286H76.4395V31.1972H79.5313V32.0438H75.4609V25.0656Z" fill="#003F23"/>
<path d="M80.7871 25.0656H82.9652C83.279 25.0598 83.591 25.1127 83.8854 25.2215C84.1357 25.3147 84.3621 25.4626 84.5479 25.6545C84.7269 25.8402 84.8648 26.0615 84.9528 26.304C85.048 26.5722 85.0949 26.8552 85.0914 27.1398C85.0949 27.3844 85.0553 27.6277 84.9744 27.8586C84.903 28.0607 84.7983 28.2495 84.6648 28.4172C84.5409 28.5737 84.3951 28.7115 84.2318 28.8264C84.0731 28.9368 83.9042 29.0318 83.7273 29.11L85.4833 32.0438H84.3899L82.805 29.3092H81.7116V32.0438H80.7871V25.0656ZM81.7116 28.4735H82.5192C82.7249 28.475 82.93 28.451 83.1298 28.402C83.3051 28.3614 83.4711 28.2879 83.6191 28.1855C83.7592 28.0829 83.8722 27.9476 83.9482 27.7915C84.0607 27.5321 84.0984 27.2464 84.0571 26.9667C84.0158 26.6871 83.8971 26.4245 83.7143 26.2088C83.4201 25.9776 83.0507 25.8634 82.6773 25.8883H81.7116V28.4735Z" fill="#003F23"/>
<path d="M86.2172 31.4397C86.2153 31.3499 86.2312 31.2607 86.2639 31.1771C86.2966 31.0935 86.3454 31.0172 86.4077 30.9525C86.4661 30.8892 86.5372 30.8388 86.6162 30.8045C86.6952 30.7702 86.7805 30.7528 86.8667 30.7533C86.9516 30.7526 87.0357 30.7701 87.1134 30.8044C87.191 30.8387 87.2604 30.8892 87.3171 30.9525C87.4374 31.0905 87.5036 31.2674 87.5036 31.4505C87.5036 31.6336 87.4374 31.8105 87.3171 31.9485C87.259 32.0092 87.189 32.0572 87.1115 32.0896C87.034 32.1221 86.9507 32.1381 86.8667 32.1369C86.7814 32.138 86.6968 32.122 86.618 32.0896C86.5391 32.0572 86.4676 32.0092 86.4077 31.9485C86.3431 31.881 86.2929 31.8012 86.2601 31.7137C86.2274 31.6262 86.2128 31.533 86.2172 31.4397Z" fill="#003F23"/>
<path d="M92.6801 25.0656C93.2351 25.0319 93.7847 25.1902 94.2368 25.5138C94.4261 25.6735 94.5752 25.8754 94.6723 26.1033C94.7693 26.3312 94.8115 26.5787 94.7954 26.8258C94.8065 27.0072 94.7816 27.1889 94.7222 27.3606C94.6627 27.5322 94.5699 27.6905 94.449 27.8261C94.2119 28.0703 93.9124 28.2448 93.583 28.3306C93.7765 28.3659 93.9635 28.4309 94.1372 28.5233C94.306 28.6157 94.4571 28.7374 94.5832 28.8827C94.7155 29.0381 94.8182 29.2164 94.8864 29.4088C94.9624 29.6273 94.9998 29.8573 94.9968 30.0886C95.0006 30.3633 94.939 30.6349 94.8171 30.8811C94.6971 31.1194 94.5264 31.3286 94.3169 31.4938C94.0921 31.6713 93.8367 31.8063 93.5635 31.8922C93.2544 31.9919 92.9312 32.0409 92.6065 32.0373H90.6709V25.0656H92.6801ZM91.6495 27.9755H92.4506C92.6218 27.9756 92.7928 27.9611 92.9616 27.9322C93.1156 27.9063 93.2629 27.8496 93.3946 27.7655C93.5195 27.6834 93.6216 27.5709 93.6912 27.4385C93.7735 27.2719 93.8122 27.0872 93.8038 26.9016C93.8154 26.754 93.7898 26.6059 93.7293 26.4709C93.6687 26.3358 93.5752 26.2181 93.4574 26.1286C93.1835 25.9535 92.8619 25.868 92.5372 25.884H91.6495V27.9755ZM91.6495 31.2232H92.5004C92.6897 31.2233 92.8784 31.203 93.0633 31.1625C93.2316 31.1269 93.3913 31.0585 93.5332 30.9612C93.6704 30.862 93.7818 30.7313 93.8579 30.5801C93.9435 30.3982 93.9851 30.1987 93.9792 29.9977C93.9865 29.7982 93.937 29.6007 93.8363 29.4283C93.7406 29.277 93.6108 29.1502 93.4574 29.0581C93.294 28.9588 93.1145 28.8892 92.9269 28.8524C92.7309 28.8129 92.5315 28.7926 92.3315 28.7917H91.6495V31.2232Z" fill="#003F23"/>
<path d="M96.2936 25.0656H97.2723V29.2291C97.2723 29.9739 97.4044 30.5044 97.6642 30.8226C97.924 31.1409 98.3483 31.299 98.9308 31.299C99.5132 31.299 99.9246 31.1214 100.191 30.7663C100.473 30.3539 100.613 29.8605 100.589 29.3612V25.0656H101.566V29.3374C101.566 30.2871 101.332 30.9915 100.864 31.4505C100.397 31.9095 99.7521 32.1383 98.9308 32.1369C98.1022 32.1369 97.4527 31.9102 96.9822 31.457C96.5116 31.0038 96.2792 30.2821 96.285 29.2919L96.2936 25.0656Z" fill="#003F23"/>
<path d="M105.065 24.966C105.382 24.9656 105.698 24.9932 106.011 25.0483C106.324 25.1079 106.628 25.2107 106.914 25.3535L106.68 26.1979C106.416 26.0666 106.139 25.9614 105.855 25.884C105.61 25.8207 105.358 25.7886 105.106 25.7887C104.765 25.7706 104.427 25.8683 104.149 26.0659C104.033 26.1578 103.94 26.2761 103.879 26.4109C103.818 26.5457 103.79 26.6932 103.798 26.841C103.793 26.9652 103.813 27.0892 103.858 27.2051C103.904 27.321 103.972 27.4262 104.06 27.5143C104.308 27.7251 104.6 27.8768 104.915 27.9582L105.584 28.1747C106.091 28.3042 106.546 28.5888 106.883 28.9888C107.088 29.2721 107.215 29.6044 107.25 29.9523C107.285 30.3001 107.228 30.6511 107.085 30.9699C106.97 31.2182 106.8 31.4373 106.589 31.6107C106.37 31.7892 106.12 31.9244 105.851 32.0091C105.548 32.1047 105.232 32.1515 104.915 32.1477C104.567 32.1466 104.22 32.1147 103.878 32.0524C103.515 31.9872 103.162 31.8698 102.832 31.7038L103.066 30.8746C103.35 31.0226 103.649 31.1381 103.958 31.2188C104.257 31.2935 104.564 31.3306 104.872 31.3293C105.219 31.3395 105.56 31.2427 105.851 31.0521C105.983 30.9624 106.09 30.8399 106.161 30.6964C106.232 30.5529 106.265 30.3935 106.255 30.2337C106.257 30.1072 106.237 29.9814 106.197 29.8613C106.152 29.7404 106.082 29.63 105.993 29.5365C105.881 29.4201 105.75 29.3229 105.606 29.2486C105.408 29.1454 105.202 29.0599 104.989 28.9931L104.32 28.7766C103.895 28.653 103.507 28.4245 103.194 28.1119C102.918 27.7989 102.776 27.3897 102.8 26.973C102.786 26.7031 102.831 26.4334 102.931 26.1823C103.032 25.9312 103.185 25.7047 103.38 25.5181C103.765 25.1515 104.327 24.9674 105.065 24.966Z" fill="#003F23"/>
<path d="M110.272 24.966C110.589 24.9655 110.905 24.9931 111.218 25.0483C111.532 25.1074 111.835 25.2101 112.121 25.3535L111.887 26.1979C111.624 26.0663 111.348 25.9611 111.064 25.884C110.819 25.8208 110.568 25.7888 110.315 25.7887C109.974 25.7706 109.637 25.8683 109.358 26.0659C109.242 26.1578 109.15 26.2761 109.089 26.4109C109.028 26.5457 109 26.6932 109.007 26.841C109.002 26.9651 109.022 27.089 109.067 27.2049C109.111 27.3208 109.18 27.4261 109.267 27.5143C109.515 27.7251 109.807 27.8768 110.122 27.9582L110.793 28.1747C111.401 28.3739 111.834 28.6452 112.093 28.9888C112.297 29.2721 112.424 29.6044 112.459 29.9523C112.495 30.3001 112.438 30.6511 112.294 30.9699C112.18 31.2131 112.013 31.4282 111.807 31.5999C111.587 31.778 111.336 31.9131 111.066 31.9983C110.764 32.094 110.448 32.1408 110.131 32.1369C109.784 32.1358 109.437 32.1039 109.096 32.0416C108.732 31.976 108.379 31.8587 108.048 31.693L108.282 30.8638C108.565 31.0115 108.865 31.1269 109.174 31.208C109.473 31.2825 109.781 31.3196 110.09 31.3184C110.436 31.3287 110.777 31.2319 111.066 31.0413C111.199 30.9516 111.306 30.829 111.377 30.6856C111.448 30.5421 111.48 30.3827 111.471 30.2229C111.472 30.0964 111.453 29.9705 111.413 29.8505C111.369 29.7293 111.3 29.6187 111.211 29.5257C111.099 29.4093 110.968 29.3121 110.824 29.2378C110.626 29.1353 110.419 29.0498 110.207 28.9823L109.538 28.7658C109.112 28.6422 108.724 28.4136 108.41 28.1011C108.135 27.7874 107.993 27.3787 108.016 26.9622C108.003 26.6923 108.048 26.4227 108.148 26.1717C108.248 25.9207 108.401 25.6941 108.596 25.5073C108.973 25.1457 109.536 24.966 110.272 24.966Z" fill="#003F23"/>
<path d="M114.736 25.0656V32.0438H113.76V25.0721L114.736 25.0656Z" fill="#003F23"/>
<path d="M116.427 25.0656H117.276L120.326 29.4803C120.439 29.6426 120.543 29.8094 120.656 29.9782C120.768 30.1471 120.859 30.3138 120.944 30.4762H120.965C120.95 30.2186 120.939 29.9609 120.933 29.7011C120.926 29.4413 120.933 29.1858 120.933 28.9282V25.0656H121.89V32.0438H121.03L118.012 27.6832C117.906 27.5295 117.795 27.3541 117.683 27.1571C117.57 26.9601 117.466 26.7695 117.362 26.5768H117.349C117.362 26.8864 117.373 27.1961 117.38 27.5057C117.386 27.8153 117.393 28.1271 117.393 28.4367V32.0438H116.436L116.427 25.0656Z" fill="#003F23"/>
<path d="M123.57 25.0656H127.608V25.9056H124.548V27.9972H127.333V28.8286H124.548V31.1972H127.64V32.0438H123.57V25.0656Z" fill="#003F23"/>
<path d="M130.773 24.966C131.09 24.9655 131.407 24.9931 131.719 25.0483C132.034 25.1077 132.338 25.2105 132.624 25.3535L132.393 26.1979C132.129 26.0666 131.852 25.9614 131.568 25.884C131.323 25.8208 131.071 25.7888 130.819 25.7887C130.478 25.7706 130.14 25.8683 129.862 26.0659C129.746 26.1578 129.653 26.2761 129.592 26.4109C129.531 26.5457 129.503 26.6932 129.511 26.841C129.505 26.9651 129.526 27.089 129.57 27.2049C129.615 27.3208 129.683 27.4261 129.771 27.5143C130.022 27.7261 130.318 27.8779 130.637 27.9582L131.306 28.1747C131.813 28.3047 132.267 28.5892 132.605 28.9888C132.81 29.2721 132.936 29.6044 132.972 29.9523C133.007 30.3001 132.95 30.6511 132.806 30.9699C132.691 31.2132 132.524 31.4283 132.317 31.5999C132.098 31.7779 131.848 31.9131 131.579 31.9983C131.276 32.0939 130.96 32.1406 130.643 32.1368C130.295 32.1358 129.948 32.1039 129.606 32.0416C129.243 31.9764 128.89 31.859 128.56 31.693L128.794 30.8638C129.078 31.0118 129.377 31.1273 129.686 31.208C129.985 31.2826 130.292 31.3197 130.6 31.3184C130.947 31.3284 131.288 31.2317 131.579 31.0413C131.711 30.9512 131.817 30.8285 131.888 30.6851C131.958 30.5417 131.99 30.3824 131.981 30.2229C131.983 30.0964 131.963 29.9705 131.923 29.8505C131.879 29.7293 131.811 29.6187 131.722 29.5257C131.609 29.4093 131.478 29.3121 131.334 29.2378C131.136 29.1353 130.929 29.0498 130.717 28.9823L130.048 28.7658C129.622 28.6416 129.235 28.4131 128.92 28.1011C128.645 27.7872 128.505 27.3785 128.528 26.9622C128.515 26.6925 128.559 26.423 128.659 26.172C128.759 25.921 128.911 25.6943 129.106 25.5073C129.484 25.1478 130.04 24.9674 130.773 24.966Z" fill="#003F23"/>
<path d="M133.666 31.4397C133.664 31.3498 133.68 31.2603 133.713 31.1767C133.746 31.093 133.796 31.0168 133.859 30.9525C133.916 30.8892 133.987 30.8387 134.066 30.8044C134.144 30.7701 134.229 30.7527 134.315 30.7533C134.401 30.7526 134.485 30.77 134.563 30.8043C134.641 30.8387 134.711 30.8892 134.768 30.9525C134.888 31.0905 134.954 31.2674 134.954 31.4505C134.954 31.6336 134.888 31.8105 134.768 31.9485C134.709 32.0092 134.639 32.0573 134.561 32.0897C134.483 32.1221 134.4 32.1382 134.315 32.1369C134.23 32.138 134.146 32.1219 134.068 32.0895C133.989 32.0571 133.918 32.0092 133.859 31.9485C133.793 31.8815 133.742 31.8018 133.709 31.7142C133.676 31.6267 133.661 31.5332 133.666 31.4397Z" fill="#003F23"/>
<path d="M138.122 25.0656H142.16V25.9056H139.098V27.9972H141.885V28.8286H139.098V31.1972H142.192V32.0438H138.122V25.0656Z" fill="#003F23"/>
<path d="M145.624 25.0656C146.072 25.0628 146.518 25.136 146.942 25.2821C147.337 25.4131 147.697 25.6306 147.997 25.9186C148.296 26.2067 148.528 26.5581 148.674 26.9471C148.849 27.4118 148.934 27.9056 148.923 28.402C148.939 28.9848 148.838 29.5648 148.627 30.1081C148.457 30.5328 148.19 30.9119 147.847 31.2153C147.505 31.5186 147.096 31.7378 146.654 31.8554C146.196 31.9831 145.723 32.0465 145.247 32.0437H143.439V25.0721L145.624 25.0656ZM144.424 31.1972H145.156C145.493 31.1977 145.829 31.1584 146.156 31.0803C146.475 31.0056 146.771 30.8573 147.022 30.6472C147.292 30.411 147.501 30.1142 147.633 29.7812C147.804 29.3369 147.883 28.8626 147.867 28.3869C147.873 28.0261 147.816 27.667 147.698 27.326C147.598 27.0336 147.432 26.768 147.214 26.5493C146.995 26.3305 146.73 26.1645 146.438 26.0637C146.115 25.9493 145.775 25.8929 145.433 25.897H144.424V31.1972Z" fill="#003F23"/>
<path d="M150.186 25.0656H151.162V29.2291C151.162 29.9739 151.293 30.5051 151.556 30.8226C151.818 31.1387 152.24 31.299 152.821 31.299C153.401 31.299 153.814 31.1214 154.081 30.7663C154.364 30.3544 154.504 29.8606 154.479 29.3612V25.0656H155.456V29.3374C155.456 30.2871 155.222 30.9915 154.754 31.4505C154.286 31.9095 153.641 32.1383 152.818 32.1369C151.991 32.1369 151.342 31.9102 150.87 31.457C150.398 31.0038 150.166 30.2821 150.175 29.2919L150.186 25.0656Z" fill="#003F23"/>
<path d="M160.002 31.2946C160.293 31.3004 160.584 31.2714 160.868 31.208C161.105 31.1453 161.335 31.0597 161.555 30.9525L161.771 31.7709C161.514 31.8999 161.24 31.9932 160.957 32.0481C160.6 32.1127 160.237 32.1424 159.875 32.1368C159.449 32.1391 159.028 32.0605 158.632 31.9052C158.247 31.753 157.901 31.5188 157.616 31.2188C157.315 30.8947 157.084 30.5123 156.936 30.0951C156.606 29.0999 156.606 28.0245 156.936 27.0293C157.082 26.611 157.312 26.227 157.612 25.9013C157.898 25.5955 158.249 25.3573 158.638 25.2041C159.052 25.0422 159.493 24.9613 159.937 24.966C160.301 24.958 160.665 24.995 161.02 25.0764C161.293 25.1458 161.558 25.246 161.808 25.3752L161.574 26.1719L161.195 26.0117C160.968 25.9175 160.729 25.8563 160.485 25.8299C160.346 25.8136 160.205 25.8056 160.065 25.806C159.763 25.8042 159.462 25.8547 159.177 25.9554C158.897 26.054 158.645 26.2198 158.443 26.4383C158.217 26.6879 158.046 26.9832 157.943 27.3043C157.811 27.7131 157.748 28.1412 157.757 28.5709C157.746 29.0024 157.808 29.4327 157.939 29.844C158.038 30.1551 158.203 30.4415 158.422 30.6841C158.616 30.8945 158.858 31.0555 159.128 31.1539C159.408 31.2531 159.705 31.3008 160.002 31.2946Z" fill="#003F23"/>
<path d="M164.885 25.0656H165.751L168.425 32.0438H167.405L166.671 30.0952H163.919L163.196 32.0438H162.185L164.885 25.0656ZM164.183 29.2919H166.385L165.937 28.0859C165.818 27.7698 165.707 27.4624 165.608 27.1679C165.508 26.8735 165.411 26.5703 165.311 26.2607H165.29C165.19 26.5703 165.088 26.8691 164.982 27.1571C164.876 27.445 164.766 27.7547 164.642 28.0859L164.183 29.2919Z" fill="#003F23"/>
<path d="M172.922 25.0656V25.9316H170.828V32.0438H169.849V25.9295H167.797V25.0634L172.922 25.0656Z" fill="#003F23"/>
<path d="M174.846 25.0656V32.0438H173.859V25.0721L174.846 25.0656Z" fill="#003F23"/>
<path d="M179.352 24.966C179.78 24.9582 180.205 25.0316 180.606 25.1825C180.983 25.3303 181.322 25.5603 181.599 25.8559C181.892 26.1794 182.113 26.5608 182.249 26.9752C182.414 27.4802 182.493 28.0094 182.483 28.5406C182.493 29.0656 182.41 29.5882 182.238 30.0843C182.094 30.5004 181.866 30.8827 181.569 31.208C181.288 31.5073 180.945 31.7416 180.564 31.8944C179.754 32.2003 178.861 32.2003 178.051 31.8944C177.673 31.7466 177.333 31.5157 177.057 31.2189C176.765 30.8959 176.543 30.5153 176.407 30.1017C176.242 29.5966 176.163 29.0675 176.174 28.5363C176.164 28.0114 176.247 27.4889 176.418 26.9925C176.563 26.5765 176.79 26.1942 177.087 25.8688C177.368 25.569 177.711 25.3346 178.092 25.1825C178.494 25.031 178.922 24.9575 179.352 24.966ZM177.237 28.5514C177.228 28.9666 177.284 29.3807 177.401 29.7791C177.493 30.0948 177.647 30.3891 177.854 30.6451C178.034 30.8668 178.266 31.0414 178.529 31.1539C178.789 31.2651 179.069 31.3218 179.352 31.3206C179.631 31.3225 179.908 31.2657 180.164 31.1539C180.418 31.0384 180.64 30.8639 180.813 30.6451C181.013 30.3877 181.16 30.0934 181.246 29.7791C181.359 29.3798 181.412 28.9662 181.404 28.5514C181.414 28.1283 181.358 27.7064 181.24 27.3C181.149 26.9843 180.996 26.6898 180.79 26.4339C180.607 26.2169 180.375 26.0462 180.114 25.936C179.853 25.8291 179.573 25.7747 179.291 25.7757C179.009 25.7741 178.73 25.8309 178.471 25.9425C178.216 26.0567 177.993 26.2313 177.821 26.4513C177.623 26.7099 177.476 27.0038 177.388 27.3173C177.277 27.7189 177.226 28.1348 177.237 28.5514Z" fill="#003F23"/>
<path d="M183.819 25.0656H184.685L187.735 29.4803C187.848 29.6426 187.952 29.8094 188.064 29.9782C188.177 30.1471 188.268 30.3138 188.352 30.4762H188.365C188.352 30.2186 188.342 29.9609 188.335 29.7011C188.329 29.4413 188.324 29.1858 188.324 28.9282V25.0656H189.281V32.0438H188.43L185.412 27.6832C185.304 27.5295 185.196 27.3541 185.083 27.1571C184.97 26.9601 184.867 26.7695 184.763 26.5768H184.741C184.757 26.8872 184.768 27.1968 184.773 27.5057C184.773 27.8174 184.784 28.1271 184.784 28.4367V32.0438H183.819V25.0656Z" fill="#003F23"/>
<path d="M33.0224 7.47832H26.9601C23.0347 7.62771 21.6014 10.3861 20.7614 13.1076L20.6639 7.4177C20.6683 3.31696 23.4093 0 26.7869 0L32.0027 0.188365L33.0224 7.47832Z" fill="#003F23"/>
<path d="M35.5772 18.1524L28.2158 18.1653C23.3833 18.1978 21.3827 21.491 20.7613 24.6412L20.6682 18.0787C20.6682 13.1726 23.9549 9.20175 28.008 9.20175H33.4013L35.5772 18.1524Z" fill="#003F23"/>
<path d="M20.0251 36.3978L20.8782 29.0126C23.0628 17.0785 29.3546 21.229 32.8535 19.5056C32.5569 23.3205 29.2702 22.4978 28.1292 25.5311C31.0304 24.9184 35.5772 24.3013 37.4608 17.7367C38.1753 14.8917 38.8097 14.8527 39.5047 14.8982C38.1992 35.2135 21.3307 27.1419 20.0251 36.3978Z" fill="#003F23"/>
<path d="M6.48236 7.47832H12.5447C16.4701 7.62771 17.9034 10.3861 18.7434 13.1076L18.8365 7.40687C18.8365 3.31696 16.0955 0 12.7179 0L7.50213 0.188365L6.48236 7.47832Z" fill="#003F23"/>
<path d="M3.92755 18.1524L11.289 18.1653C16.1215 18.1978 18.1221 21.491 18.7435 24.6412L18.8366 18.0787C18.8366 13.1726 15.5499 9.20175 11.4968 9.20175H6.1035L3.92755 18.1524Z" fill="#003F23"/>
<path d="M19.4861 36.3978L18.62 29.0126C16.4419 17.0806 10.1501 21.2312 6.65124 19.5077C6.94787 23.3227 10.2345 22.4999 11.3755 25.5333C8.47427 24.9205 3.92753 24.3035 2.04387 17.7388C1.32938 14.8917 0.695003 14.8527 0 14.8982C1.29907 35.2135 18.174 27.1419 19.4861 36.3978Z" fill="#003F23"/>
</g>
<defs>
<clipPath id="clip0_292_145">
<rect width="190" height="36.3978" fill="white"/>
</clipPath>
</defs>
</svg>
